<svg width="200" height="180" viewBox="0 0 200 180" fill="none" xmlns="http://www.w3.org/2000/svg">
<path d="M170 0H30C13.4391 0.0179037 0.0179037 13.4391 0 30V116.667C0.0179037 133.228 13.4391 146.649 30 146.667H39.2659L33.4001 175.999C33.1478 177.261 33.6442 178.553 34.6729 179.323C35.7015 180.093 37.0817 180.202 38.2194 179.603L100.824 146.667H170C186.561 146.649 199.982 133.228 200 116.667V30C199.982 13.4391 186.561 0.0179037 170 0ZM193.333 116.667C193.319 129.548 182.881 139.985 170 140H100C99.458 140 98.9258 140.132 98.4473 140.384L41.3102 170.457L46.5999 144.001C46.8001 143.019 46.5495 142 45.9163 141.226C45.2832 140.449 44.3343 140 43.3333 140H30C17.1191 139.985 6.68131 129.548 6.66667 116.667V30C6.68131 17.1191 17.1191 6.68132 30 6.66667H170C182.881 6.68132 193.319 17.1191 193.333 30V116.667Z" fill="#FFC815"/>
</svg>
