<svg width="200" height="200" viewBox="0 0 200 200" fill="none" xmlns="http://www.w3.org/2000/svg">
<path d="M100.121 13.0434C49.6426 13.0434 8.57461 54.1109 8.57461 104.589C8.57461 155.068 49.6422 196.135 100.121 196.135C150.599 196.135 191.666 155.068 191.666 104.589C191.667 54.1109 150.599 13.0434 100.121 13.0434ZM100.121 181.643C57.6328 181.643 23.0676 147.077 23.0676 104.589C23.0676 62.1016 57.6328 27.5363 100.121 27.5363C142.609 27.5363 177.174 62.1039 177.174 104.589C177.174 147.075 142.609 181.643 100.121 181.643Z" fill="#FFC815"/>
<path d="M135.386 100H106.401V57.2465C106.401 53.2441 103.157 50 99.1543 50C95.152 50 91.9078 53.2441 91.9078 57.2465V107.246C91.9078 111.249 95.152 114.493 99.1543 114.493H135.386C139.391 114.493 142.633 111.249 142.633 107.246C142.633 103.244 139.389 100 135.386 100Z" fill="#FFC815"/>
<path d="M48.9348 163.732C45.8477 161.186 41.2824 161.626 38.7344 164.71L19.4105 188.14C16.8645 191.23 17.3043 195.795 20.391 198.343C21.7414 199.457 23.3742 200 24.9973 200C27.0844 200 29.1566 199.102 30.5914 197.365L49.9152 173.935C52.4613 170.845 52.0219 166.28 48.9348 163.732Z" fill="#FFC815"/>
<path d="M180.833 188.14L161.509 164.71C158.966 161.626 154.396 161.186 151.307 163.732C148.222 166.28 147.782 170.848 150.329 173.935L169.652 197.365C171.082 199.102 173.157 200 175.246 200C176.87 200 178.502 199.457 179.855 198.343C182.939 195.795 183.379 191.227 180.833 188.14Z" fill="#FFC815"/>
<path d="M38.768 0C17.5918 0 0.362504 17.2293 0.362504 38.4059C0.362504 52.5484 8.21289 65.5484 20.8481 72.3262L27.7008 59.5555C19.7781 55.3066 14.8555 47.2004 14.8555 38.4059C14.8555 25.2199 25.5824 14.493 38.7684 14.493C48.2199 14.493 56.7996 20.1789 60.6258 28.9785L73.9156 23.1984C67.7899 9.10625 53.9926 0 38.768 0Z" fill="#FFC815"/>
<path d="M161.232 0C145.544 0 131.626 9.3625 125.768 23.8551L139.205 29.2852C142.838 20.2996 151.483 14.493 161.23 14.493C174.416 14.493 185.143 25.2199 185.143 38.4059C185.143 47.2418 180.498 55.0727 172.713 59.3527L179.7 72.0508C191.998 65.2852 199.637 52.3937 199.637 38.4059C199.637 17.2293 182.411 0 161.232 0Z" fill="#FFC815"/>
</svg>
