<svg width="200" height="200" viewBox="0 0 200 200" fill="none" xmlns="http://www.w3.org/2000/svg">
<path d="M182.422 23.8281H17.5781C7.89766 23.8281 0 31.7172 0 41.4062V158.594C0 168.25 7.8625 176.172 17.5781 176.172H182.422C192.078 176.172 200 168.309 200 158.594V41.4062C200 31.75 192.137 23.8281 182.422 23.8281ZM179.995 35.5469L100.373 115.169L20.0621 35.5469H179.995ZM11.7188 156.167V43.777L68.1559 99.7301L11.7188 156.167ZM20.0051 164.453L76.4777 107.98L96.2656 127.598C98.5563 129.87 102.253 129.862 104.534 127.58L123.828 108.286L179.995 164.453H20.0051ZM188.281 156.167L132.114 100L188.281 43.8328V156.167Z" fill="#FFC815"/>
</svg>
