<svg width="200" height="200" viewBox="0 0 200 200" fill="none" xmlns="http://www.w3.org/2000/svg">
<path d="M100 0C44.8593 0 0 44.8593 0 100C0 155.141 44.8593 200 100 200C155.141 200 200 155.141 200 100C200 44.8593 155.141 0 100 0ZM94.1406 49.0845C85.2264 48.7015 76.4023 47.4487 67.9764 45.4117C69.3222 42.2226 70.7825 39.1602 72.3572 36.2579C78.8177 24.353 86.7493 15.9988 94.1406 12.973V49.0845ZM94.1406 60.8124V94.1406H57.5424C58.0582 81.1325 60.2753 68.219 63.942 56.4728C73.6588 58.9203 83.8593 60.4019 94.1406 60.8124ZM94.1406 105.859V139.188C83.8593 139.598 73.6588 141.08 63.942 143.527C60.2753 131.781 58.0582 118.867 57.5424 105.859H94.1406ZM94.1406 150.916V187.027C86.7493 184.001 78.8177 175.647 72.3572 163.742C70.7825 160.84 69.3222 157.777 67.9764 154.588C76.4023 152.551 85.2249 151.299 94.1406 150.916ZM105.859 150.916C114.774 151.299 123.598 152.551 132.024 154.588C130.678 157.777 129.218 160.84 127.643 163.742C121.182 175.647 113.251 184.001 105.859 187.027V150.916ZM105.859 139.188V105.859H142.458C141.942 118.867 139.725 131.781 136.058 143.527C126.341 141.08 116.141 139.598 105.859 139.188ZM105.859 94.1406V60.8124C116.141 60.4019 126.341 58.9203 136.058 56.4728C139.725 68.219 141.942 81.1325 142.458 94.1406H105.859ZM105.859 49.0845V12.973C113.251 15.9988 121.182 24.353 127.643 36.2579C129.218 39.1602 130.678 42.2226 132.024 45.4117C123.598 47.4487 114.774 48.7015 105.859 49.0845ZM137.943 30.6686C135.008 25.2609 131.821 20.4941 128.461 16.4276C140.176 20.4285 150.789 26.8295 159.714 35.0388C154.623 37.7655 149.138 40.1337 143.367 42.1127C141.73 38.1363 139.92 34.3109 137.943 30.6686V30.6686ZM62.0575 30.6686C60.08 34.3109 58.2703 38.1363 56.633 42.1127C50.8621 40.1337 45.3766 37.764 40.2863 35.0388C49.2111 26.8295 59.8236 20.4285 71.5393 16.4276C68.1793 20.4941 64.9933 25.2594 62.0575 30.6686ZM52.6688 53.1265C48.6694 65.921 46.3181 79.8691 45.8115 94.1406H11.9186C13.1729 75.0961 20.4864 57.6797 31.955 43.8156C38.3194 47.4655 45.2896 50.5875 52.6688 53.1265ZM45.8115 105.859C46.3181 120.132 48.6694 134.079 52.6688 146.873C45.2896 149.413 38.3194 152.534 31.955 156.184C20.4864 142.32 13.1729 124.904 11.9186 105.859H45.8115ZM56.633 157.887C58.2703 161.864 60.08 165.689 62.0575 169.331C64.9933 174.739 68.1793 179.506 71.5393 183.572C59.8236 179.572 49.2111 173.17 40.2878 164.961C45.3751 162.236 50.8621 159.866 56.633 157.887ZM137.943 169.331C139.92 165.689 141.73 161.864 143.367 157.887C149.138 159.866 154.623 162.236 159.714 164.961C150.789 173.17 140.176 179.572 128.461 183.572C131.821 179.506 135.007 174.741 137.943 169.331V169.331ZM147.331 146.873C151.331 134.079 153.682 120.131 154.189 105.859H188.081C186.827 124.904 179.514 142.32 168.045 156.184C161.681 152.534 154.71 149.413 147.331 146.873V146.873ZM154.189 94.1406C153.682 79.8676 151.331 65.921 147.331 53.1265C154.71 50.5875 161.681 47.4655 168.045 43.8156C179.514 57.6797 186.827 75.0961 188.081 94.1406H154.189Z" fill="#FFC815"/>
</svg>
