<svg width="200" height="200" viewBox="0 0 200 200" fill="none" xmlns="http://www.w3.org/2000/svg">
<path d="M190 40H146.667V26.6667C146.655 17.4658 139.201 10.0114 130 10H70C60.7992 10.0114 53.3447 17.4658 53.3333 26.6667V40H10C4.47754 40 0 44.4775 0 50V124.199C0.0211588 128.428 2.68555 132.189 6.66667 133.61V180C6.66667 185.522 11.1442 190 16.6667 190H183.333C188.856 190 193.333 185.522 193.333 180V133.613C197.314 132.191 199.98 128.428 200 124.199V50C200 44.4775 195.522 40 190 40ZM60 26.6667C60 21.1442 64.4775 16.6667 70 16.6667H130C135.522 16.6667 140 21.1442 140 26.6667V40H133.333V26.6667C133.333 24.8258 131.841 23.3333 130 23.3333H70C68.1592 23.3333 66.6667 24.8258 66.6667 26.6667V40H60V26.6667ZM126.667 40H73.3333V30H126.667V40ZM186.667 180C186.667 181.841 185.174 183.333 183.333 183.333H16.6667C14.8258 183.333 13.3333 181.841 13.3333 180V134.756L86.6667 144.87V153.333C86.6667 158.856 91.1442 163.333 96.6667 163.333H103.333C108.856 163.333 113.333 158.856 113.333 153.333V144.87L186.667 134.756V180ZM106.667 153.333C106.667 155.174 105.174 156.667 103.333 156.667H96.6667C94.8258 156.667 93.3333 155.174 93.3333 153.333V133.333C93.3333 131.493 94.8258 130 96.6667 130H103.333C105.174 130 106.667 131.493 106.667 133.333V153.333ZM193.333 124.199C193.335 125.861 192.113 127.271 190.467 127.503L189.543 127.63L113.333 138.14V133.333C113.333 127.811 108.856 123.333 103.333 123.333H96.6667C91.1442 123.333 86.6667 127.811 86.6667 133.333V138.14L9.53613 127.503C7.89062 127.272 6.66504 125.863 6.66667 124.199V50C6.66667 48.1592 8.15918 46.6667 10 46.6667H190C191.841 46.6667 193.333 48.1592 193.333 50V124.199Z" fill="#FFC815"/>
</svg>
