<svg width="200" height="200" viewBox="0 0 200 200" fill="none" xmlns="http://www.w3.org/2000/svg">
<g clip-path="url(#clip0)">
<path d="M184.592 125.639C181.841 125.639 179.611 127.868 179.611 130.62V174.846C179.601 183.096 172.918 189.781 164.668 189.789H24.9052C16.6553 189.781 9.9718 183.096 9.96207 174.846V45.0452C9.9718 36.7973 16.6553 30.1118 24.9052 30.1021H69.1313C71.8826 30.1021 74.1124 27.8723 74.1124 25.121C74.1124 22.3717 71.8826 20.14 69.1313 20.14H24.9052C11.1567 20.1555 0.015561 31.2967 -4.76837e-06 45.0452V174.848C0.015561 188.596 11.1567 199.737 24.9052 199.753H164.668C178.416 199.737 189.558 188.596 189.573 174.848V130.62C189.573 127.868 187.343 125.639 184.592 125.639V125.639Z" fill="#FFC815"/>
<path d="M187.6 7.32354C178.846 -1.43024 164.654 -1.43024 155.901 7.32354L67.0358 96.1883C66.4268 96.7973 65.9871 97.5523 65.7575 98.3812L54.0715 140.57C53.5909 142.3 54.0793 144.152 55.3479 145.423C56.6184 146.691 58.4708 147.18 60.2005 146.701L102.389 135.013C103.218 134.784 103.973 134.344 104.582 133.735L193.445 44.8681C202.185 36.1085 202.185 21.9281 193.445 13.1685L187.6 7.32354ZM77.889 99.426L150.618 26.6951L174.074 50.1507L101.343 122.882L77.889 99.426ZM73.2037 108.828L91.9429 127.569L66.0221 134.751L73.2037 108.828ZM186.402 37.8246L181.119 43.1072L157.661 19.6497L162.946 14.367C167.808 9.50469 175.692 9.50469 180.555 14.367L186.402 20.212C191.256 25.0802 191.256 32.9584 186.402 37.8246V37.8246Z" fill="#FFC815"/>
</g>
<defs>
<clipPath id="clip0">
<rect width="200" height="200" fill="white"/>
</clipPath>
</defs>
</svg>
